<svg xmlns="http://www.w3.org/2000/svg" xmlns:xlink="http://www.w3.org/1999/xlink" width="60" height="60" viewBox="0 0 60 60">
    <defs>
        <path id="a" d="M0 .028h17.889v11.358H0z"/>
        <path id="c" d="M0 43h38.927V0H0z"/>
    </defs>
    <g fill="none" fill-rule="evenodd">
        <circle cx="30" cy="30" r="30" fill="#F0F0F0"/>
        <g transform="matrix(-1 0 0 1 50 9)">
            <g transform="translate(0 14.77)">
                <mask id="b" fill="#fff">
                    <use xlink:href="#a"/>
                </mask>
                <path fill="#1FA637" d="M3.895.028c-.575 0-1.105.309-1.393.813L.21 4.917a1.598 1.598 0 0 0 0 1.58l2.293 4.075a1.59 1.59 0 0 0 1.393.814H17.89V.028H3.895z" mask="url(#b)"/>
            </g>
            <mask id="d" fill="#fff">
                <use xlink:href="#c"/>
            </mask>
            <path fill="#D2FFD8" d="M4.722 18.91h10.242v-.85H4.722zM4.722 20.911h10.242v-.85H4.722zM4.722 22.902h10.242v-.85H4.722z" mask="url(#d)"/>
            <path fill="#1FA637" d="M38.717 7.777l-2.294-4.075a1.59 1.59 0 0 0-1.393-.814H21.046v11.367H35.04c.575 0 1.105-.308 1.392-.813l2.294-4.075a1.64 1.64 0 0 0-.01-1.59" mask="url(#d)"/>
            <path fill="#D2FFD8" d="M23.869 6.992H34.11v-.85H23.87zM23.869 8.993H34.11v-.851H23.87zM23.869 10.984H34.11v-.851H23.87z" mask="url(#d)"/>
            <path fill="#2D4354" d="M21.139 1.683v39.71h-3.343V1.682A1.676 1.676 0 0 1 19.468 0c.919 0 1.67.757 1.67 1.683" mask="url(#d)"/>
            <path fill="#375366" d="M18.632.234c-.502.29-.836.832-.836 1.458v39.71h1.672V1.681a1.66 1.66 0 0 0-.836-1.448" mask="url(#d)"/>
            <path fill="#21303E" d="M25.754 40.98H13.18a.384.384 0 0 0-.38.384v1.253c0 .215.176.383.38.383h12.564c.213 0 .38-.178.38-.383v-1.253a.365.365 0 0 0-.371-.383" mask="url(#d)"/>
        </g>
        <circle cx="51" cy="9" r="9" fill="#F0F0F0"/>
        <path fill="#3E3E3E" fill-rule="nonzero" d="M53.486 12.158c.42 0 .63.178.63.536 0 .37-.21.556-.63.556h-3.55c-.427 0-.64-.185-.64-.556 0-.358.213-.536.64-.536h1.093V7.37l-1.009.62a.543.543 0 0 1-.262.083.462.462 0 0 1-.373-.189.653.653 0 0 1-.152-.42c0-.203.091-.36.273-.472l1.627-1.008c.21-.126.41-.189.599-.189.196 0 .353.06.473.178.119.12.178.284.178.494v5.691h1.102z"/>
    </g>
</svg>
