<svg xmlns="http://www.w3.org/2000/svg" xmlns:xlink="http://www.w3.org/1999/xlink" width="60" height="60" viewBox="0 0 60 60">
    <defs>
        <path id="a" d="M0 28.975h38.958V0H0z"/>
    </defs>
    <g fill="none" fill-rule="evenodd">
        <circle cx="30" cy="30" r="30" fill="#F0F0F0"/>
        <g transform="translate(9 15)">
            <path fill="#2D4354" d="M35.761 4.808H5.358c-.746 0-1.356.602-1.356 1.357v18.434c0 .746.602 1.357 1.356 1.357h30.395c.746 0 1.356-.602 1.356-1.357V6.165c0-.747-.602-1.357-1.348-1.357"/>
            <mask id="b" fill="#fff">
                <use xlink:href="#a"/>
            </mask>
            <path fill="#EBF0F3" d="M6.316 23.844h28.487V6.928H6.316z" mask="url(#b)"/>
            <path fill="#21303E" d="M2.17 25.905v.61a2.46 2.46 0 0 0 2.46 2.46h31.869a2.46 2.46 0 0 0 2.459-2.46v-.61H2.17z" mask="url(#b)"/>
            <path fill="#1FA637" d="M0 2.501v10.956a2.5 2.5 0 0 0 2.501 2.501h2.662l6.317 5.41-.085-5.41h8.232a2.5 2.5 0 0 0 2.501-2.501V2.501A2.5 2.5 0 0 0 19.628 0H2.5A2.5 2.5 0 0 0 0 2.501" mask="url(#b)"/>
            <path fill="#27A2DB" d="M23.756 18.341h8.105v-.899h-8.105z" mask="url(#b)"/>
            <path fill="#D5D6DB" d="M31.861 20.224H21.798v-.9H31.87v.9zM31.861 22.115H21.798v-.9H31.87v.9z" mask="url(#b)"/>
            <path fill="#375366" d="M24.163 26.727h-4.917l-.416-.822h5.757z" mask="url(#b)"/>
            <path fill="#FFF" d="M11.386 2.934c-2.026 0-3.67 1.594-3.67 3.722v6.08c0 .094.05.17.092.238l.051.05s.026 0 .026.026c.05.05.118.068.186.068h.119a1.693 1.693 0 0 0 1.552-1.696V6.63c0-.907.737-1.645 1.644-1.645.907 0 1.645.738 1.645 1.645a1.634 1.634 0 0 1-.432 1l-.051.051c-.263.263-.5.407-.831.407-.05 0-.068-.025-.093-.05-.051-.051-.026-.094-.026-.094V7.47c0-.025 0-.05-.025-.067-.051-.051-.119-.051-.17 0l-1.255 1.255a.372.372 0 0 0-.093.262c0 .094.026.17.093.238l1.238 1.357.026.025c.025.025.05.025.068.025.067 0 .118-.05.118-.118v-.5c0-.094.094-.145.144-.145h.051c2.077 0 3.197-1.314 3.264-3.146 0-2.052-1.602-3.722-3.67-3.722" mask="url(#b)"/>
        </g>
        <circle cx="51" cy="9" r="9" fill="#F0F0F0"/>
        <path fill="#3E3E3E" fill-rule="nonzero" d="M53.449 12.158c.42 0 .63.178.63.536 0 .37-.21.556-.63.556h-3.99a.571.571 0 0 1-.43-.163.558.558 0 0 1-.158-.404.8.8 0 0 1 .241-.567l2.394-2.572c.294-.323.51-.618.646-.888.137-.27.205-.537.205-.803 0-.329-.095-.581-.284-.756-.189-.175-.458-.263-.808-.263-.287 0-.565.055-.835.163-.27.109-.54.257-.814.447-.07.049-.14.089-.21.12a.508.508 0 0 1-.21.048c-.119 0-.222-.056-.31-.168a.629.629 0 0 1-.13-.4c0-.105.018-.195.057-.272.039-.078.1-.151.184-.221.308-.245.668-.44 1.081-.583a3.754 3.754 0 0 1 1.24-.215c.72 0 1.296.182 1.727.546.43.364.645.854.645 1.47 0 .427-.09.828-.273 1.202-.182.375-.49.793-.924 1.255l-1.816 1.932h2.772z"/>
    </g>
</svg>
