<svg xmlns="http://www.w3.org/2000/svg" xmlns:xlink="http://www.w3.org/1999/xlink" width="60" height="60" viewBox="0 0 60 60">
    <defs>
        <path id="a" d="M0 0h6.328v6.328H0z"/>
        <path id="c" d="M0 0h6.328v6.328H0z"/>
        <path id="e" d="M0 0h10.547v2.11H0z"/>
        <path id="g" d="M0 0h5.273v2.11H0z"/>
    </defs>
    <g fill="none" fill-rule="evenodd">
        <circle cx="30" cy="30" r="30" fill="#F0F0F0"/>
        <g transform="translate(24.797 41.672)">
            <mask id="b" fill="#fff">
                <use xlink:href="#a"/>
            </mask>
            <path fill="#2D4354" d="M3.164 6.328A3.169 3.169 0 0 1 0 3.164v-2.11C0 .472.471 0 1.055 0h4.218c.584 0 1.055.471 1.055 1.055v2.11a3.169 3.169 0 0 1-3.164 3.163" mask="url(#b)"/>
        </g>
        <g transform="translate(39.563 41.672)">
            <mask id="d" fill="#fff">
                <use xlink:href="#c"/>
            </mask>
            <path fill="#21303E" d="M3.164 6.328A3.169 3.169 0 0 1 0 3.164v-2.11C0 .472.471 0 1.055 0h4.218c.584 0 1.055.471 1.055 1.055v2.11a3.169 3.169 0 0 1-3.164 3.163" mask="url(#d)"/>
        </g>
        <path fill="#A8EBFA" d="M44.836 34.29H25.852l1.624-4.895a2.11 2.11 0 0 1 2.004-1.434h11.728c.907 0 1.708.57 2.004 1.434l1.624 4.894z"/>
        <path fill="#CC2E43" d="M27.307 33.234l1.181-3.501c.127-.422.549-.717.992-.717h11.728c.443 0 .865.295.991.717l1.181 3.501H27.307zm18.52.718l-1.624-4.873a3.127 3.127 0 0 0-2.995-2.173H29.48a3.127 3.127 0 0 0-2.996 2.173l-1.624 4.873c-.126.316-.063.675.127.949a1.1 1.1 0 0 0 .865.443h18.984a1.1 1.1 0 0 0 .865-.443c.19-.274.253-.633.126-.95z"/>
        <path fill="#76E2F8" d="M44.836 34.29h-9.492v-6.33h5.864c.907 0 1.708.57 2.004 1.435l1.624 4.894z"/>
        <path fill="#AE2538" d="M45.7 34.9a1.1 1.1 0 0 1-.864.444h-9.492v-2.11h8.036l-1.18-3.501c-.127-.422-.55-.717-.992-.717h-5.864v-2.11h5.864c1.371 0 2.573.865 2.995 2.173l1.624 4.873c.127.316.064.675-.126.949"/>
        <path fill="#2D4354" d="M30.07 35.344a1.06 1.06 0 0 1-.745-.31 1.048 1.048 0 0 1 0-1.49l2.11-2.11a1.055 1.055 0 0 1 1.49 1.49l-2.11 2.11a1.06 1.06 0 0 1-.745.31"/>
        <path fill="#21303E" d="M38.508 35.344a1.06 1.06 0 0 1-.746-.31 1.048 1.048 0 0 1 0-1.49l2.11-2.11a1.055 1.055 0 0 1 1.49 1.49l-2.109 2.11a1.06 1.06 0 0 1-.745.31"/>
        <path fill="#E63950" d="M44.836 33.234H25.852a3.16 3.16 0 0 0-3.165 3.164v6.329c0 .59.465 1.054 1.055 1.054h23.203c.59 0 1.055-.464 1.055-1.054v-6.329a3.16 3.16 0 0 0-3.164-3.164"/>
        <path fill="#CC2E43" d="M48 36.398v6.329c0 .59-.464 1.054-1.055 1.054H35.344V33.234h9.492A3.16 3.16 0 0 1 48 36.398"/>
        <path fill="#375366" d="M18.328 27.82v14.907c0 .59-.464 1.054-1.055 1.054-.59 0-1.054-.464-1.054-1.054V27.82c0-.59.464-1.054 1.054-1.054.591 0 1.055.464 1.055 1.054"/>
        <path fill="#2D4354" d="M20.438 42.727v4.218h-6.329v-4.218c0-.591.464-1.055 1.055-1.055h4.219c.59 0 1.055.464 1.055 1.055"/>
        <path fill="#2D4354" d="M17.273 43.781V26.766c.591 0 1.055.464 1.055 1.054v14.907c0 .59-.464 1.054-1.055 1.054"/>
        <path fill="#2D4354" d="M20.438 42.727v4.218h-3.165v-5.273h2.11c.59 0 1.055.464 1.055 1.055"/>
        <path fill="#25B74E" d="M21.492 12h-6.328A3.16 3.16 0 0 0 12 15.164v10.547a3.16 3.16 0 0 0 3.164 3.164h6.328a5.275 5.275 0 0 0 5.274-5.273v-6.329A5.275 5.275 0 0 0 21.492 12"/>
        <path fill="#1FA637" d="M26.766 17.273v6.329a5.275 5.275 0 0 1-5.274 5.273h-4.219V12h4.22a5.275 5.275 0 0 1 5.273 5.273"/>
        <path fill="#DEECF1" d="M30.07 39.563h-2.11a1.053 1.053 0 0 1-1.054-1.055c0-.584.471-1.055 1.055-1.055h2.11c.583 0 1.054.471 1.054 1.055 0 .583-.471 1.055-1.055 1.055"/>
        <path fill="#C6E2E7" d="M42.727 39.563h-2.11a1.053 1.053 0 0 1-1.054-1.055c0-.584.47-1.055 1.054-1.055h2.11c.583 0 1.054.471 1.054 1.055 0 .583-.47 1.055-1.054 1.055"/>
        <g transform="translate(12 45.89)">
            <mask id="f" fill="#fff">
                <use xlink:href="#e"/>
            </mask>
            <path fill="#21303E" d="M10.547 1.055c0 .59-.464 1.054-1.055 1.054H1.055C.465 2.11 0 1.645 0 1.055 0 .465.464 0 1.055 0h8.437c.59 0 1.055.464 1.055 1.055" mask="url(#f)"/>
        </g>
        <g transform="translate(17.273 45.89)">
            <mask id="h" fill="#fff">
                <use xlink:href="#g"/>
            </mask>
            <path fill="#21303E" d="M5.273 1.055c0 .59-.464 1.054-1.054 1.054H0V0h4.219c.59 0 1.054.464 1.054 1.055" mask="url(#h)"/>
        </g>
        <path fill="#DEECF1" d="M19.383 16.219c-1.68 0-3.045 1.322-3.045 3.086v5.042c0 .077.042.14.078.197l.042.042s.02 0 .02.021a.211.211 0 0 0 .156.056h.098a1.404 1.404 0 0 0 1.287-1.406V19.284c0-.752.611-1.364 1.364-1.364.752 0 1.364.612 1.364 1.364a1.355 1.355 0 0 1-.359.83l-.042.042c-.218.218-.415.338-.689.338-.042 0-.056-.021-.077-.042-.043-.043-.021-.078-.021-.078v-.394c0-.02 0-.042-.022-.056-.042-.042-.098-.042-.14 0l-1.048 1.048a.308.308 0 0 0-.077.218c0 .077.021.14.077.197l1.027 1.125.02.02c.022.022.043.022.057.022a.096.096 0 0 0 .099-.099v-.414c0-.078.077-.12.12-.12h.041c1.723 0 2.651-1.09 2.707-2.608.007-1.716-1.315-3.094-3.037-3.094"/>
        <circle cx="51" cy="9" r="9" fill="#F0F0F0"/>
        <path fill="#3E3E3E" fill-rule="nonzero" d="M52.509 9.449c.441.112.779.324 1.013.635.235.312.352.698.352 1.16 0 .638-.234 1.145-.704 1.523-.469.378-1.102.567-1.9.567-.455 0-.892-.07-1.313-.21a3.16 3.16 0 0 1-1.07-.588.636.636 0 0 1-.11-.887.389.389 0 0 1 .309-.163c.07 0 .133.012.189.037.056.024.133.064.231.12.294.197.574.347.84.452.266.105.556.157.872.157.462 0 .804-.092 1.028-.278.225-.185.337-.467.337-.845 0-.371-.118-.646-.352-.824-.235-.179-.597-.268-1.087-.268h-.599a.451.451 0 0 1-.372-.163.577.577 0 0 1-.132-.373c0-.147.044-.272.132-.377a.458.458 0 0 1 .372-.158h.42c.96 0 1.439-.36 1.439-1.081 0-.337-.101-.595-.305-.777-.203-.183-.482-.273-.84-.273-.51 0-1.056.202-1.638.609a2.62 2.62 0 0 1-.23.12.467.467 0 0 1-.19.037.389.389 0 0 1-.31-.163.607.607 0 0 1-.13-.393c0-.106.019-.195.057-.268a.854.854 0 0 1 .184-.226c.294-.245.646-.44 1.055-.583.41-.143.828-.215 1.255-.215.728 0 1.307.178 1.738.535.43.358.646.833.646 1.428a1.914 1.914 0 0 1-.32 1.066 1.77 1.77 0 0 1-.867.667z"/>
    </g>
</svg>
