<?xml version="1.0" standalone="no"?>
<!DOCTYPE svg PUBLIC "-//W3C//DTD SVG 20010904//EN"
 "http://www.w3.org/TR/2001/REC-SVG-20010904/DTD/svg10.dtd">
<svg version="1.0" xmlns="http://www.w3.org/2000/svg"
 width="225.000000pt" height="225.000000pt" viewBox="0 0 225.000000 225.000000"
 preserveAspectRatio="xMidYMid meet">

<g transform="translate(0.000000,225.000000) scale(0.100000,-0.100000)"
fill="rgb(122, 38, 193)" stroke="none">
<path d="M985 2239 c-38 -5 -110 -20 -159 -34 -380 -108 -676 -407 -783 -791
-26 -92 -28 -112 -28 -289 1 -209 7 -244 71 -410 127 -330 418 -585 769 -674
126 -31 255 -42 364 -30 280 31 516 144 702 336 101 104 156 182 215 307 186
393 127 848 -156 1189 -241 291 -621 442 -995 396z m356 -578 c74 -28 166
-112 202 -183 78 -155 50 -339 -71 -465 -53 -55 -106 -87 -192 -113 -50 -16
-55 -20 -58 -49 -6 -56 -28 -49 -100 29 -96 104 -100 113 -67 158 14 21 50 64
79 96 59 65 86 70 86 16 0 -16 5 -30 11 -30 26 0 76 42 98 81 61 108 -1 235
-125 255 -75 12 -164 -47 -190 -126 -5 -14 -9 -167 -9 -340 0 -281 -2 -318
-17 -347 -42 -77 -153 -118 -197 -74 -21 21 -21 27 -21 394 0 312 3 382 16
428 20 68 46 112 98 167 57 61 88 81 164 109 85 30 206 28 293 -6z"/>
</g>
</svg>
