<svg xmlns="http://www.w3.org/2000/svg" version="1.1" width="1000" height="623" viewBox="0 0 1000 623"><g transform="matrix(1,0,0,1,-0.6060606060606233,0.2522267206477409)"><svg viewBox="0 0 396 247" data-background-color="#ffffff" preserveAspectRatio="xMidYMid meet" height="623" width="1000" xmlns="http://www.w3.org/2000/svg" ><g id="tight-bounds" transform="matrix(1,0,0,1,0.2400000000000091,-0.09999999999999432)"><svg viewBox="0 0 395.52 247.2" height="247.2" width="395.52"><g><svg viewBox="0 0 395.52 247.2" height="247.2" width="395.52"><g transform="matrix(1,0,0,1,0,45.59721577726218)"><svg viewBox="0 0 395.52 156.00556844547563" height="156.00556844547563" width="395.52"><g><svg viewBox="0 0 395.52 156.00556844547563" height="156.00556844547563" width="395.52"><g><svg viewBox="0 0 395.52 156.00556844547563" height="156.00556844547563" width="395.52"><g><svg viewBox="0 0 395.52 156.00556844547563" height="156.00556844547563" width="395.52"><g id="textblocktransform"><svg viewBox="0 0 395.52 156.00556844547563" height="156.00556844547563" width="395.52" id="textblock"><g><svg viewBox="0 0 395.52 156.00556844547563" height="156.00556844547563" width="395.52"><g transform="matrix(1,0,0,1,0,0)"><svg width="395.52" viewBox="-0.5 -39.5 108.73999786376953 43.5" height="156.00556844547563" data-palette-color="#7a26c1"><path d="M8.2-35L8.2 0 3.5 0 3.5-35 8.2-35ZM19.65-23.2L19.65 0 14.95 0 14.95-23Q14.95-28.9 18.12-32.2 21.3-35.5 26.55-35.5L26.55-35.5Q32.15-35.5 35.22-32.3 38.3-29.1 38.3-24.15L38.3-24.15Q38.3-21.05 37.17-18.75 36.05-16.45 34.15-15.2 32.25-13.95 30.1-13.35 27.95-12.75 25.6-12.75L25.6-12.75 21.85-12.75 21.85-17.15 26.15-17.15Q29.5-17.15 31.42-19.18 33.35-21.2 33.35-24.25L33.35-24.25Q33.35-27.25 31.57-29.18 29.8-31.1 26.5-31.1L26.5-31.1Q23.3-31.1 21.47-28.93 19.65-26.75 19.65-23.2L19.65-23.2ZM56.4-14.1L56.4-14.1 56.4-9.6Q54.5-11.05 51.75-11.05L51.75-11.05Q49.4-11.05 48.09-10.13 46.8-9.2 46.8-7.5L46.8-7.5Q46.8-4.2 51.7-4.2L51.7-4.2 58.3-4.2 58.3-13.75Q58.3-19.8 52.4-19.8L52.4-19.8 44.4-19.8 44.4-24 52.65-24Q57.5-24 60.09-21.6 62.7-19.2 62.7-14.7L62.7-14.7 62.7 0 51.55 0Q47.3 0 44.8-1.9 42.3-3.8 42.3-7.45 42.3-11.1 44.95-13 47.59-14.9 51.59-14.9L51.59-14.9Q53.84-14.9 56.4-14.1ZM71.84 0L67.44 0 67.44-13.65Q67.44-19.4 69.59-21.6L69.59-21.6Q70.64-22.7 72.14-23.25 73.64-23.8 74.77-23.9 75.89-24 77.84-24L77.84-24 82.24-24 82.24-19.8 76.94-19.8Q75.94-19.8 75.39-19.75 74.84-19.7 74.09-19.4 73.34-19.1 72.79-18.45L72.79-18.45Q71.84-17.25 71.84-13.65L71.84-13.65 71.84 0ZM94.09-14.45L99.29-24 104.14-24 98.09-13.55Q104.24-11.9 104.24-3.6L104.24-3.6 104.24 0 99.84 0 99.84-3.65Q99.84-7 97.87-8.83 95.89-10.65 92.24-10.65L92.24-10.65Q91.09-10.65 89.89-10.5L89.89-10.5 89.89 0 85.49 0 85.49-35 89.89-35 89.89-14.45Q91.99-14.75 94.09-14.45L94.09-14.45Z" opacity="1" transform="matrix(1,0,0,1,0,0)" fill="#7a26c1" class="undefined-text-0" data-fill-palette-color="primary" id="text-0"></path></svg></g></svg></g></svg></g></svg></g></svg></g></svg></g></svg></g></svg></g><defs></defs></svg><rect width="395.52" height="247.2" fill="none" stroke="none" visibility="hidden"></rect></g></svg></g></svg>